<svg width="100" height="17" viewBox="0 0 100 17" fill="none" xmlns="http://www.w3.org/2000/svg">
<path d="M99.725 3.39963L99.7184 6.28887H98.0944V5.08329H96.2164V8.7693H98.6223L99.7184 9.91253V14.8665L98.6825 15.9404L96.8046 15.9473L96.2031 15.5594L96.2098 15.9543L94.5925 15.9404L94.5858 13.0512H96.2164V14.2499H98.0944V10.4599H95.7821L94.5858 9.21271V4.47351L95.6284 3.39264L97.5865 3.39963L98.1746 3.78067V3.38574L99.725 3.39963ZM78.573 5.08312H78.025V3.39256H80.7784V5.08312H80.2036V14.8594L79.1611 15.9403H76.107L75.0645 14.8594V5.08312H74.5231V3.39256H77.2765V5.08312H76.6951V14.2497H78.573V5.08312ZM85.5503 14.2497H83.7058V5.08312H84.3006V3.39256H81.5004V5.08312H82.0752V14.2497H81.5004V15.9403L87.1809 15.9334V13.1412H85.5503V14.2497Z" fill="white"/>
<path fill-rule="evenodd" clip-rule="evenodd" d="M68.3485 5.11796V3.42731H73.0801L74.029 4.41124V9.17812L73.5145 9.70475L74.029 10.2382V14.9913L73.0801 15.9682H68.3485V14.2846H68.9233V5.11796H68.3485ZM72.3984 5.11796H70.5539V8.85244H72.3984V5.11796ZM72.3984 10.5431H70.5539V14.2846H72.3984V10.5431Z" fill="white"/>
<path d="M92.1198 14.2497H90.2753V5.08312H90.8701V3.39256H88.0699V5.08312H88.6447V14.2497H88.0699V15.9403L93.7504 15.9334V13.1412H92.1198V14.2497Z" fill="white"/>
<path fill-rule="evenodd" clip-rule="evenodd" d="M58.8253 4.50818L59.8678 3.42731H62.9219L63.9645 4.50818V14.9012L62.9219 15.982H59.8678L58.8253 14.9012V4.50818ZM62.3338 5.12486H60.4559L60.4827 14.2846H62.3338V5.12486ZM49.3285 3.42731H47.7045L46.027 14.2915H45.3588V15.9682H48.1522V14.2915H47.6444L47.7446 13.661H49.2483L49.3419 14.2915H48.8406V15.9682H51.6274V14.2915H50.9591L49.3285 3.42731ZM48.0253 11.9773L48.5131 8.79707L49.0077 11.9773H48.0253Z" fill="white"/>
<path d="M27.5753 3.49666L27.5552 6.87786H25.9246V5.12486H24.0466V14.2915H25.9246V12.5316H27.5552V14.9012L26.5127 15.9821H23.4586L22.416 14.9012V4.50827L23.4586 3.4343L25.3766 3.41351L25.9713 3.82233V3.46889L27.5753 3.49666ZM57.7957 6.24713L57.8091 3.44103L56.2052 3.42025L56.2118 3.80828L55.6438 3.43413H53.6991L52.6565 4.515V14.901L53.6991 15.9819H56.7532L57.7957 14.901V8.85926L54.8485 8.86616V10.5567H56.1651V14.2913H54.2871V5.12469H56.1651V6.24713H57.7957ZM36.1897 5.12469H35.6149V3.43413H38.4084V5.12469H37.8203V14.2913H38.4084V15.9819H35.6149V14.2913H36.1897V5.12469ZM31.8928 5.12469H32.4675V8.83848H30.5695V5.12469H31.1576V3.43413H28.3641V5.12469H28.9389V14.2913H28.3641V15.9819H31.1576V14.2913H30.5695V10.529H32.4675V14.2913H31.8928V15.9819H34.6796V14.2913H34.0915V5.12469H34.6796V3.43413H31.8928V5.12469ZM44.8375 3.49666L44.8175 6.87786H43.1935V5.12486H41.3089V14.2915H43.1935V12.5316H44.8175V14.9012L43.7816 15.9821H40.7208L39.6783 14.9012V4.50827L40.7208 3.4343L42.6455 3.41351L43.2403 3.82233V3.46889L44.8375 3.49666Z" fill="white"/>
<path d="M1.418 0C1.38897 0.802996 1.39726 1.67496 1.54658 2.44346C1.4097 2.27105 1.26454 2.10848 1.11522 1.95083C0.974196 2.12818 0.853913 2.32031 0.712891 2.4878C0.862208 1.62569 1.09863 0.788217 1.418 0Z" fill="#EFF9FF"/>
<path d="M19.8458 2.26303L19.8884 2.4878L19.5268 2.17619C19.361 2.26303 19.2078 2.38564 19.0547 2.47248C19.1653 1.65513 19.1993 0.827564 19.1568 0C19.4758 0.704961 19.6502 1.47634 19.8458 2.25793V2.26303Z" fill="#EFF9FF"/>
<path d="M6.96538 9.96612C6.93308 10.2794 6.83159 10.6424 6.51778 10.7617C6.25934 10.8363 6.03784 10.6772 5.87175 10.4832C5.79327 10.3937 5.74255 10.2794 5.71484 10.155C6.10708 10.4335 6.61928 10.2147 6.95155 9.95117L6.96538 9.96612Z" fill="#EFF9FF"/>
<path d="M14.4693 9.95117C14.38 10.136 14.1402 10.324 13.8675 10.3622C13.7641 10.3718 13.6607 10.3622 13.5666 10.3335C13.4726 10.3017 13.3974 10.2539 13.3457 10.1933C13.2752 10.1264 13.2328 10.0436 13.2188 9.96072C13.5714 10.1551 14.1261 10.1073 14.4693 9.95435V9.95117Z" fill="#EFF9FF"/>
<path d="M13.9734 10.5184C14.1418 10.534 14.3103 10.5184 14.4682 10.456C14.0208 11.5542 13.4892 12.6159 12.9418 13.6829C12.7523 13.152 12.7997 12.5847 12.826 11.9861C12.9102 11.2939 13.0629 10.6121 13.2839 9.95117C13.4365 10.2062 13.6786 10.4716 13.9734 10.5184Z" fill="#EFF9FF"/>
<path d="M7.68852 13.6725V13.6829C7.05955 12.6788 6.58292 11.6074 6.13086 10.5412C6.33228 10.6551 6.67627 10.7276 6.89247 10.5774C7.08411 10.417 7.22168 10.1996 7.28558 9.95117C7.79664 11.0329 7.91455 12.4407 7.68852 13.6725Z" fill="#EFF9FF"/>
<path d="M18.1854 7.33373C17.0758 6.92921 15.9056 6.70558 14.7262 6.67701C14.6236 5.39218 14.4791 4.59753 14.232 3.86945C13.6586 3.83613 11.1132 3.73145 10.1202 3.73145C9.12718 3.73145 6.62838 3.89324 6.06427 3.92655C5.74261 4.83069 5.53285 5.77765 5.44424 6.73414C4.1902 6.83407 2.95478 7.10053 1.77065 7.53358C1.61214 7.59067 1.54688 7.64776 1.54688 7.63828C1.76132 7.91427 2.03172 8.14268 2.33941 8.2997C2.6471 8.45676 2.98741 8.54238 3.32774 8.5519C3.66806 8.56142 4.30674 8.49481 4.71233 8.30922C4.8242 8.26165 5.05267 8.15694 5.05267 8.15694C5.09463 8.23308 5.13659 8.31401 5.16453 8.39962C5.27644 8.72322 5.42562 9.1991 5.52352 9.3942C5.66801 9.70824 5.90581 9.93665 6.28805 9.95096C6.41393 9.94143 6.53517 9.90813 6.64704 9.85104C6.75895 9.78916 6.85684 9.70824 6.93143 9.60357C5.93844 9.54648 5.52352 9.00399 5.45357 8.18073C5.21582 8.14742 5.15056 8.12364 5.12726 7.98562C5.11324 7.91427 5.11324 7.83813 5.12726 7.76673C5.14587 7.69538 5.17855 7.62876 5.22515 7.57162C5.33702 7.40987 5.52816 7.25759 6.0037 7.40987C6.27408 7.51931 6.52115 7.67633 6.7356 7.87144C6.94076 8.06654 7.53745 8.70417 7.89644 8.91359C8.27872 9.14674 9.01062 9.36564 9.48616 8.88024C9.78917 8.58999 9.985 8.19978 10.0503 7.78104C9.30435 7.76199 8.55843 7.69538 7.8172 7.58593C7.61204 7.55262 7.70529 7.35273 7.8638 7.40034C7.8638 7.40034 9.15981 7.57162 10.0829 7.58593C10.0829 7.4717 10.0829 7.28611 10.0922 7.06722C9.31368 7.04818 8.53513 6.9673 7.77055 6.82455C7.60276 6.77698 7.63539 6.58187 7.79385 6.62944C8.55379 6.75793 9.32301 6.83407 10.0922 6.86259C10.0922 6.70084 10.1016 6.45812 10.1016 6.23922C9.33698 6.2297 8.57709 6.15835 7.82653 6.02985C7.63539 5.99655 7.68199 5.82048 7.82653 5.84427C8.58173 5.94898 9.34162 6.01081 10.1016 6.02985V5.51115C10.1016 5.31604 10.2694 5.30178 10.2694 5.50167V6.02033C10.9873 6.00129 11.7006 5.93467 12.4092 5.81096C12.633 5.76339 12.6143 5.96324 12.5117 5.97276C11.7705 6.12025 11.0246 6.20592 10.2694 6.23922V6.86259C10.9546 6.83881 11.7658 6.81502 12.4558 6.65322C12.7169 6.59613 12.7355 6.8055 12.5258 6.83881C11.7845 6.9673 11.0339 7.04344 10.2834 7.07201C10.2834 7.24328 10.2834 7.46696 10.2927 7.59067C11.0712 7.56688 11.8497 7.49548 12.6237 7.3813C12.8055 7.34799 12.8381 7.5431 12.647 7.57641C12.4558 7.60019 11.1598 7.77151 10.3253 7.7953C10.4139 8.08559 10.4279 8.49959 10.8335 8.86124C11.2157 9.20862 11.8824 9.17531 12.3439 8.89454C12.7029 8.67565 13.281 8.03798 13.4814 7.84287C13.6493 7.69059 14.0549 7.3099 14.5956 7.32421C15.1271 7.33373 15.1364 7.61445 15.1691 7.69538C15.1924 7.78578 15.2157 7.93805 15.0898 8.01893C15.0012 8.07607 14.908 8.05228 14.8194 8.09985C14.7495 8.5519 14.619 9.06108 14.2693 9.32759C13.8964 9.61784 13.3229 9.65114 13.3229 9.65114C13.3229 9.65114 13.4022 9.74159 13.4255 9.76537C13.5747 9.87482 13.7611 9.92239 13.943 9.90334C14.1808 9.86051 14.4045 9.74633 14.5723 9.57027C14.7541 9.32759 14.922 8.82793 15.0432 8.50433C15.0898 8.39014 15.2017 8.17121 15.2343 8.07607C15.3462 8.12364 15.3928 8.15694 15.5933 8.23787C16.0082 8.39962 16.4464 8.47576 16.8893 8.47102C17.4394 8.4615 18.0734 8.11411 18.4464 7.75247C18.5023 7.69537 18.6375 7.53358 18.6375 7.53358C18.6375 7.53358 18.2786 7.3813 18.176 7.34799L18.1854 7.33373Z" fill="#EFF9FF"/>
<path d="M12.161 13.6726C10.6848 12.9805 8.6705 13.1986 7.38281 14.1655C7.415 15.0851 7.64037 15.9525 8.23822 16.6208C9.44766 17.1516 11.0848 17.1043 12.2943 16.6113C12.8186 15.9619 13.1405 15.1609 13.2187 14.3172C12.8968 14.0423 12.5289 13.8574 12.161 13.6726ZM10.8227 14.5258C11.0113 14.156 11.3792 14.0091 11.7654 14.0423C11.885 14.0613 12 14.1039 12.1012 14.1798C12.2023 14.2508 12.2851 14.3456 12.3403 14.4594C12.4415 14.6537 12.3633 14.8717 12.2529 15.0472C12.1563 15.1751 12.023 15.2699 11.8712 15.3221C11.7195 15.3742 11.5585 15.3789 11.4067 15.3363C11.2136 15.2747 11.048 15.1419 10.9377 14.9666C10.8917 15.1277 11.0066 15.2415 10.9929 15.3931C10.9883 15.4026 10.9837 15.4074 10.9745 15.4121C10.9653 15.4121 10.9607 15.4216 10.9515 15.4216C10.9423 15.4216 10.9331 15.4216 10.9285 15.4216C10.9193 15.4216 10.9147 15.4121 10.9055 15.4074C10.7261 15.1656 10.6618 14.7959 10.8181 14.5305L10.8227 14.5258ZM8.10484 14.6822C8.11862 14.6016 8.14623 14.521 8.18762 14.4547C8.42215 14.1323 8.84523 14.0613 9.19015 14.1798C9.39249 14.2508 9.56263 14.393 9.6684 14.5826C9.82477 14.8481 9.74661 15.1941 9.59945 15.4453C9.57646 15.4785 9.54423 15.5164 9.49826 15.4785C9.4293 15.3979 9.52124 15.3268 9.53044 15.2462C9.54885 15.1799 9.55343 15.1087 9.53965 15.0377C9.44766 15.1799 9.31432 15.2936 9.15796 15.36C9.00617 15.4263 8.83603 15.4453 8.6705 15.4169C8.54633 15.3837 8.43135 15.3268 8.33479 15.2367C8.23822 15.1514 8.16464 15.0424 8.11404 14.9192C8.09106 14.8386 8.08643 14.758 8.09564 14.6775L8.10484 14.6822ZM12.2437 16.4359C12.1196 16.4027 11.9862 16.3553 11.8528 16.308C10.7399 15.8577 9.32811 15.9856 8.28419 16.4359C8.252 16.4122 8.22439 16.3743 8.21519 16.3317C9.42467 15.7676 11.0941 15.6965 12.3173 16.3222C12.2943 16.379 12.2851 16.379 12.2391 16.4359H12.2437Z" fill="#EFF9FF"/>
<path d="M12.801 9.50901C12.5707 9.62993 12.3315 9.71699 12.0786 9.77988C11.4015 9.96851 10.6701 9.77988 10.2773 9.12207C10.2232 9.1801 10.169 9.24299 10.1238 9.3107C9.54598 10.0169 8.5076 9.94429 7.79883 9.62993C8.14643 10.6311 8.29089 11.7677 8.09226 12.8608C8.0381 13.0978 7.97036 13.3541 7.90716 13.5766C9.22544 12.827 11.117 12.8028 12.4579 13.5283C12.5662 13.5766 12.652 13.6589 12.7513 13.683C12.5572 13.0591 12.4579 12.4013 12.4579 11.7436C12.4488 10.9842 12.5617 10.2297 12.7965 9.50901H12.801ZM10.8371 12.2949C10.1193 12.4932 9.31121 12.3288 8.8191 11.6855C8.48049 11.2212 8.27736 10.6553 8.24123 10.0652C8.27283 10.0459 8.31346 10.0362 8.3496 10.041C8.42633 10.9213 8.8507 11.8838 9.66784 12.1547C10.029 12.2804 10.4218 12.2853 10.783 12.1692C11.1486 12.0531 11.4737 11.8258 11.7175 11.5114C12.0335 11.0616 12.2547 10.5392 12.3631 9.98301C12.3811 9.98301 12.4037 9.98301 12.4218 9.99269C12.4398 10.0024 12.4579 10.012 12.4714 10.0314C12.2953 10.96 11.7536 12.0289 10.8326 12.2998L10.8371 12.2949Z" fill="#EFF9FF"/>
<path d="M1.56631 2.90834C2.05537 3.88909 3.0429 4.20468 4.05394 4.14642C4.60884 4.14642 5.15436 4.08815 5.71392 4.05417V4.08815C5.43177 4.90869 5.23428 5.75833 5.1214 6.62258C3.66834 6.68083 2.17763 6.54973 1.11016 5.5496C0.371865 4.78731 0.188466 3.72401 0.348352 2.67529C0.517643 2.46166 0.710445 2.28687 0.884441 2.07324C1.12427 2.34513 1.50988 2.55876 1.56631 2.91319V2.90834Z" fill="#EFF9FF"/>
<path d="M19.8246 2.39168C19.8575 2.54844 19.8575 2.69052 19.881 2.85708C19.9517 4.02304 19.4622 5.10574 18.5068 5.70341C17.462 6.36965 16.2525 6.5852 14.9677 6.63422C14.9441 6.51662 14.9347 6.35009 14.9111 6.21781C14.8217 5.44376 14.6711 4.67953 14.4688 3.92996C15.843 3.90547 17.5185 4.28759 18.4268 2.96486C18.5398 2.7738 18.6668 2.62193 18.7703 2.41617C18.9775 2.32309 19.1704 2.17612 19.3728 2.07324C19.4623 2.11722 19.8246 2.39168 19.8246 2.39168Z" fill="#EFF9FF"/>
<path d="M14.8848 8.29297C14.8953 8.73605 14.7323 9.19361 14.3012 9.40551C14.0961 9.50185 13.87 9.54519 13.6387 9.53556C13.6335 9.49221 13.6335 9.44886 13.6387 9.40551C13.9805 9.40551 14.3275 9.28994 14.5168 9.02985C14.6325 8.82275 14.6955 8.59641 14.6955 8.36523C14.7534 8.32668 14.8165 8.30261 14.8848 8.29297Z" fill="#EFF9FF"/>
<path d="M6.95782 9.5212C6.89408 9.54209 6.82058 9.54209 6.75684 9.5212C6.61473 9.5212 6.47256 9.48979 6.34021 9.42702C6.20785 9.36419 6.09023 9.27527 5.99219 9.16014C5.89414 9.04507 5.82064 8.91426 5.7716 8.76777C5.7226 8.62124 5.70791 8.46428 5.71772 8.31258C5.78141 8.28643 5.85495 8.28643 5.91869 8.31258C5.91869 8.7573 6.08531 9.3433 6.9382 9.3433C6.99706 9.4427 6.9382 9.45838 6.96275 9.5212H6.95782Z" fill="#EFF9FF"/>
</svg>
