<svg fill="none" xmlns="http://www.w3.org/2000/svg" viewBox="0 0 72 24" width="72" height="24"><path d="M68.259 21.535c.122-.212.204-.643.204-1.087v-2.886c0-.445-.082-.876-.204-1.088v-.034H71.5v.971h-.028c-.291-.15-.759-.219-1.383-.219h-.59v1.334h.577c.542 0 .834-.034 1.105-.096h.034v.999h-.034c-.271-.062-.563-.096-1.105-.096H69.5v1.484h.577c.65 0 1.18-.089 1.566-.287h.034v1.04H68.26v-.035Zm-5.448-2.517c0-1.628 1.085-2.66 2.76-2.66.509 0 1.025.096 1.35.246v1.053h-.034c-.326-.307-.807-.485-1.329-.485-1.058 0-1.675.656-1.675 1.812 0 1.197.671 1.86 1.838 1.86.156 0 .312-.013.461-.047V19.53c-.461 0-.72.035-.956.083h-.034v-.972h.034c.244.048.515.082 1.01.082h1.031v.035c-.054.136-.082.417-.082.731v1.21c0 .316.028.534.062.671v.034a5.522 5.522 0 0 1-1.52.246c-1.77 0-2.916-1.04-2.916-2.633Zm-4.282-1.094v2.524c0 .444.081.875.203 1.087v.035h-1.295v-.035c.122-.212.204-.643.204-1.087v-2.886c0-.445-.082-.876-.204-1.088v-.034h1.384l2.075 3.31v-2.188c0-.445-.081-.876-.204-1.088v-.034h1.296v.034c-.122.212-.204.643-.204 1.088v4.008h-.929l-2.326-3.646Zm-3.523 1.464-.637-1.895-.638 1.895h1.275Zm1.453 1.224c.116.342.238.636.496.923v.035H55.32v-.035c.163-.294.156-.615.054-.91l-.142-.416h-1.831l-.143.417c-.101.294-.108.615.055.91v.034h-1.458v-.035c.257-.287.373-.581.488-.923L53.8 16.44h1.207l1.451 4.172Zm-9.586-3.05c0-.445-.082-.876-.204-1.088v-.034h1.445v.034c-.122.212-.204.643-.204 1.088v.944h2.116v-.944c0-.445-.081-.876-.203-1.088v-.034h1.444v.034c-.122.212-.203.643-.203 1.088v2.886c0 .444.08.875.203 1.087v.035h-1.444v-.035c.122-.212.203-.643.203-1.087v-1.094H47.91v1.094c0 .444.082.875.204 1.087v.035h-1.445v-.035c.122-.212.204-.643.204-1.087v-2.886Zm-5.255 1.456c0-1.6 1.057-2.66 2.637-2.66.536 0 1.059.102 1.465.321v1.067h-.033c-.38-.39-.902-.574-1.432-.574-.976 0-1.573.69-1.573 1.812 0 1.15.604 1.854 1.594 1.854.522 0 1.03-.219 1.41-.61h.034v1.102a3.452 3.452 0 0 1-1.471.321c-1.574 0-2.631-1.053-2.631-2.633Zm-3.298-.102-1.03-1.67c-.19-.3-.367-.56-.645-.772v-.034h1.777v.034c-.095.294-.014.575.17.89l.495.84.501-.84c.19-.315.238-.596.143-.89v-.034h1.594v.034c-.278.212-.462.472-.651.773l-1.024 1.628 1.166 1.887c.19.301.366.561.645.773v.035h-1.778v-.035c.095-.294.014-.574-.17-.889l-.63-1.073-.637 1.073c-.19.315-.238.595-.143.89v.034H36.51v-.035c.278-.212.46-.472.65-.773l1.16-1.846Zm-5.785 2.62c.122-.213.203-.644.203-1.088v-2.886c0-.445-.081-.876-.203-1.088v-.034h3.241v.971h-.027c-.291-.15-.76-.219-1.383-.219h-.59v1.334h.576c.543 0 .834-.034 1.106-.096h.033v.999h-.033c-.272-.062-.563-.096-1.106-.096h-.576v1.484h.576c.651 0 1.18-.089 1.567-.287h.034v1.04h-3.419v-.035Zm19.307-8.093v-2.886c0-.445-.082-.876-.204-1.088v-.034h1.445v.034c-.123.212-.204.643-.204 1.088v1.128l1.356-1.484c.217-.232.38-.5.38-.732v-.034h1.594v.034c-.292.178-.57.438-.82.698l-1.235 1.265 1.444 2.325c.19.301.367.561.645.773v.035h-1.777v-.035c.095-.294.014-.574-.17-.889l-.881-1.505-.536.589v.718c0 .444.081.875.204 1.087v.035h-1.445v-.035c.122-.212.204-.643.204-1.087Zm-5.256-1.43c0-1.6 1.058-2.66 2.639-2.66.535 0 1.057.103 1.464.321v1.068h-.033c-.38-.39-.903-.575-1.431-.575-.977 0-1.574.69-1.574 1.812 0 1.15.604 1.854 1.594 1.854.522 0 1.03-.22 1.41-.609h.034v1.101a3.454 3.454 0 0 1-1.471.322c-1.574 0-2.632-1.054-2.632-2.633Zm-4.79-.04c0 1.17.55 1.86 1.486 1.86.929 0 1.471-.67 1.471-1.806 0-1.17-.549-1.86-1.485-1.86-.929 0-1.472.67-1.472 1.806Zm4.029 0c0 1.586-1.038 2.674-2.557 2.674-1.526 0-2.543-1.047-2.543-2.62 0-1.586 1.038-2.674 2.557-2.674 1.526 0 2.543 1.046 2.543 2.62Zm-6.864-1.785h-.204v3.255c0 .444.082.875.204 1.087v.035h-1.445v-.035c.122-.212.204-.643.204-1.087v-3.256h-.204c-.55 0-1.004.09-1.33.288h-.033v-1.04h4.17v1.04h-.033c-.326-.199-.78-.287-1.33-.287Zm-6.528 4.158v-1.122h.034c.488.445.902.63 1.444.63.53 0 .821-.206.821-.602 0-.438-.366-.568-1.024-.828-.719-.28-1.377-.574-1.377-1.505 0-.97.705-1.566 1.858-1.566a3 3 0 0 1 1.16.219v1.04h-.034c-.38-.315-.74-.466-1.16-.466-.501 0-.786.212-.786.61 0 .437.366.567 1.024.827.719.28 1.377.574 1.377 1.504 0 .965-.726 1.56-1.9 1.56a3.52 3.52 0 0 1-1.437-.301ZM60.12 3.915v2.523c0 .445.081.876.203 1.088v.034H59.03v-.035c.122-.211.203-.642.203-1.087V3.552c0-.444-.081-.875-.203-1.087V2.43h1.383l2.076 3.31V3.553c0-.445-.082-.875-.204-1.087V2.43h1.296v.035c-.122.212-.204.642-.204 1.087V7.56h-.929L60.12 3.915Zm-5.876 1.053c0 1.17.55 1.86 1.486 1.86.928 0 1.471-.67 1.471-1.805 0-1.17-.55-1.86-1.485-1.86-.93 0-1.472.67-1.472 1.805Zm4.029 0c0 1.586-1.038 2.674-2.557 2.674-1.526 0-2.544-1.047-2.544-2.62 0-1.586 1.038-2.674 2.557-2.674 1.527 0 2.544 1.047 2.544 2.62ZM49.87 3.224h-.922v3.542h.936c.963 0 1.471-.608 1.471-1.743 0-1.17-.515-1.8-1.485-1.8Zm0 4.336h-2.163v-.035c.122-.211.203-.642.203-1.087V3.552c0-.444-.081-.875-.203-1.087V2.43h2.177c1.566 0 2.543.978 2.543 2.538 0 1.58-1.004 2.592-2.557 2.592Zm-6.633-3.645v2.523c0 .445.082.876.204 1.088v.034h-1.296v-.035c.122-.211.204-.642.204-1.087V3.552c0-.444-.082-.875-.204-1.087V2.43h1.384l2.075 3.31V3.553c0-.445-.081-.875-.203-1.087V2.43h1.295v.035c-.122.212-.204.642-.204 1.087V7.56h-.928l-2.327-3.645Zm-5.876 1.053c0 1.17.55 1.86 1.486 1.86.929 0 1.472-.67 1.472-1.805 0-1.17-.55-1.86-1.486-1.86-.929 0-1.472.67-1.472 1.805Zm4.03 0c0 1.586-1.038 2.674-2.558 2.674-1.526 0-2.543-1.047-2.543-2.62 0-1.586 1.038-2.674 2.557-2.674 1.526 0 2.543 1.047 2.543 2.62Zm-8.858 2.557c.123-.211.204-.642.204-1.087V3.552c0-.444-.081-.875-.203-1.087V2.43h1.444v.035c-.122.212-.203.643-.203 1.087v3.256h.46c.652 0 1.174-.096 1.567-.295h.034V7.56h-3.302v-.035ZM23.407 20.36v1.54c-.717-.16-1.407-.257-2.052-.257a6.89 6.89 0 0 0-2.068.318c-.582.188-1.068.415-1.497.623-.552.265-.989.47-1.403.47-.103 0-.205-.013-.305-.04v-1.541c.1.021.202.032.305.032.452 0 .927-.223 1.477-.487.61-.293 1.326-.635 2.259-.809l-.035-.168a6.99 6.99 0 0 0-.801.2c-.583.184-1.068.416-1.497.621-.495.236-.897.43-1.273.467v-.211c0-.13-.044-.335-.531-.335-.488 0-1.025.318-1.025.677v.439c-.594.17-1.569.262-2.177.262-.31 0-.825-.04-1.35-.104a5.042 5.042 0 0 1-.825-.158v-.439c0-.36-.538-.678-1.026-.678-.487 0-.53.206-.53.336v.211c-.377-.036-.779-.23-1.274-.467-.621-.296-1.35-.647-2.303-.822l-.01.173c.923.175 1.634.515 2.24.805.549.264 1.023.487 1.476.487.102 0 .204-.01.304-.032v1.541c-.099.027-.201.04-.304.04-.414 0-.85-.205-1.403-.47-.87-.41-1.952-.941-3.565-.941-.645 0-1.335.096-2.05.256V20.36a9.66 9.66 0 0 1 1.202-.21.54.54 0 0 0 .21.147c-.004-.054 0-.505.012-.447.013.056.103.22.103.22.029.048.217.34.388.315.12-.018.16-.086.172-.117l-.004-.01a.533.533 0 0 1-.067-.182c-.032-.324.22-.344.406-.19.204.17.272.06.272.06-.228-.408.07-.429.07-.429-.005-.343.172-.292.172-.292-.009-.087-.097-.165-.25-.171-.15-.006-.453.198-.507.224-.053.026-.138-.072-.138-.072-.229-.307-.19-.704-.19-.704a2.43 2.43 0 0 0 .332-.597c-.189-.266-.138-.565-.138-.565.268.693.592.621.592.621-.135-.652.142-1.165.248-1.36.067-.122-.028-.387-.098-.563 0 0-.136-.322-.164-.447-.028-.125-.052-.313.133-.553l-.002.018c-.01.073-.01.157.008.307.018.15.098.35.154.456.032.061.067.12.105.178.626.28 1.127.331 1.127.331.07.236-.007.76-.029.891a6.892 6.892 0 0 0-.039.305c-.008.097.002.365.158.383.156.018.278.126.351.328.073.203.24.279.24.279-.052-.11-.003-.229-.003-.229.155.448.913.412.913.412-.14-.124-.197-.303-.197-.303.423.407.87.06.87.06-.179-.09-.222-.282-.222-.282.576.332.755-.2.755-.2-.153-.027-.181-.153-.181-.153.205.064.254-.037.254-.037-.094-.233.056-.348.056-.348.278-.26.126-.458.126-.458-.332.034-.327-.34-.327-.34-.125-.051-.302.072-.302.072.158-.223.067-.319.067-.319-.357.04-.36-.224-.36-.224-.149-.01-.198.1-.218.193-.02.094-.016.346.063.53.079.182-.008.4-.008.4-.568-.293-1.055-.252-1.055-.252l.075-.302c-.224-.328-.185-.45-.185-.45.323.466.674.43.674.43l.034-.007h.003c-.295-.125-.336-.922-.654-1.27-.178-.194-.514-.316-.773-.363-.863-.156-.908-.652-.908-.652l.002-.004c.311-.457 1.045-.96 1.045-.96-.06-.067-.159-.322-.159-.322-.297.021-.44-.077-.44-.077-.418-.263-.272-.609-.272-.609.004.04.081.36.365.472.284.11.464-.018.464-.018s-.026.036.053.245c.079.208.39.593.39.593.288-.285.194-.76.194-.76.112.103.79.692.79.692-.044 0-.347.035-.347.035-.255.049-.171.203-.171.203.067-.036.151-.037.203.066.052.102 0 .244 0 .244.07.098.134.066.247-.03.114-.095.31-.06.36-.043.049.018.05.063.065.096.027.055.136.134.098.196-.04.11-.039.21-.039.21s-.063.064-.074.14c-.01.077.034.15.107.24.074.089.172.029.172.029.023-.012.11-.077.179.002.086.098.012.251.012.251.061.055.156-.014.176-.026.02-.011.105-.084.193-.062.088.023.1.183.1.183a.368.368 0 0 0 .172-.163c.106-.211-.048-.51-.095-.575-.047-.066-.083-.096-.107-.158-.024-.063-.067-.208-.109-.337a.602.602 0 0 0-.079-.147v-.545h3.145v2.715H8.99c-.165.152-.064.246-.114.375.056-.014.091-.026.167-.025.214-.134.694-.355.984.17-.177.03-.4.047-.556.17a.875.875 0 0 1 .029.395h2.628v3.776a4.384 4.384 0 0 1-2.073-1.576 5.346 5.346 0 0 1-.778-1.625c-.048.045-.101.084-.154.087a5.51 5.51 0 0 0 .793 1.64c.686.956 1.671 1.59 2.85 1.835l.017.004.017-.004c1.178-.245 2.164-.879 2.85-1.836.344-.48.609-1.028.792-1.64-.052-.002-.105-.04-.153-.086a5.357 5.357 0 0 1-.778 1.625 4.387 4.387 0 0 1-2.073 1.576v-3.776h2.628a.877.877 0 0 1 .029-.396c-.156-.122-.379-.139-.556-.17.29-.524.77-.303.984-.169.075 0 .11.011.167.026-.05-.13.051-.224-.114-.377H13.44v-2.714h3.144v.54a.621.621 0 0 0-.081.152l-.11.337c-.023.062-.06.092-.107.157-.047.066-.2.365-.094.576 0 0 .047.104.172.163 0 0 .012-.16.1-.183.087-.022.172.05.192.062.02.012.115.081.176.026 0 0-.073-.153.013-.251.07-.079.156-.014.178-.002 0 0 .099.06.173-.03.073-.088.117-.162.106-.239a.293.293 0 0 0-.073-.14c.003-.198-.092-.211-.015-.314.133-.14.066-.161.14-.188.049-.017.245-.051.358.044.114.095.178.127.247.03 0 0-.051-.143 0-.245.053-.103.136-.102.204-.066 0 0 .083-.154-.171-.203 0 0-.303-.036-.347-.035l.79-.693s-.094.476.193.76c0 0 .312-.384.39-.592.08-.21.054-.245.054-.245s.18.129.463.018c.285-.112.362-.432.365-.472 0 0 .146.346-.272.609 0 0-.142.098-.44.077 0 0-.098.255-.158.321 0 0 .733.504 1.045.96l.001.005s-.044.496-.907.652c-.26.047-.595.168-.773.364-.319.347-.36 1.144-.654 1.269h.003l.034.007s.35.036.674-.43c0 0 .04.122-.186.45l.076.302s-.487-.041-1.056.253c0 0-.087-.22-.007-.402.079-.182.082-.435.063-.529-.02-.093-.07-.203-.22-.193 0 0-.001.264-.358.225 0 0-.09.095.067.318 0 0-.178-.123-.302-.071 0 0 .004.373-.327.34 0 0-.152.197.126.457 0 0 .15.115.055.348 0 0 .05.101.255.037 0 0-.028.126-.182.153 0 0 .18.532.755.2 0 0-.043.193-.22.282 0 0 .445.346.87-.06 0 0-.058.18-.198.303 0 0 .758.036.913-.412 0 0 .05.12-.004.229 0 0 .168-.076.24-.279.074-.202.196-.31.352-.328.155-.018.165-.286.157-.383 0 0-.018-.174-.039-.305s-.099-.655-.028-.89c0 0 .501-.052 1.126-.332 0 0 .05-.072.105-.178.057-.106.137-.307.155-.457a1.26 1.26 0 0 0 .008-.306l-.003-.018c.186.24.162.427.134.553a4.234 4.234 0 0 1-.164.447c-.07.176-.165.44-.098.563.106.195.382.708.248 1.36 0 0 .324.072.591-.62 0 0 .052.298-.138.564 0 0 .115.32.332.597 0 0 .04.397-.19.704 0 0-.084.099-.137.072-.053-.026-.357-.23-.506-.224-.154.006-.243.084-.252.171 0 0 .178-.052.172.292 0 0 .298.021.07.429 0 0 .068.11.273-.06.186-.154.438-.134.406.19 0 0-.007.073-.067.183l-.004.009c.012.031.052.099.172.117.17.026.359-.267.387-.315 0 0 .091-.164.104-.22.011-.058.016.393.011.447 0 0 .107-.035.21-.147a9.58 9.58 0 0 1 1.207.21Zm-8.129 2.447v.646c-.216.113-.609.209-1.142.281-.524.067-1.042.092-1.351.092-.31 0-.827-.025-1.352-.092-.533-.072-.926-.168-1.142-.281v-1.48c.607.265 1.91.35 2.494.35.582 0 1.887-.085 2.493-.35v.834ZM4.683 12.647c-.123.046-.246-.026-.327-.128a.479.479 0 0 1-.221.062c-.154 0-.256-.114-.315-.255-.215.113-.47-.104-.43-.346-.215.024-.368-.233-.282-.433-.043-.004-.155-.033-.21-.185a.295.295 0 0 1 .053-.3c-.045-.026-.18-.113-.184-.262a.47.47 0 0 1 .135-.35c-.073-.062-.49-.445-.525-1.02 0-.003 0-.03.004-.045l.008-.074c.093.427.313.867.68 1.13-.115.061-.178.179-.176.323.003.163.088.237.187.248-.102.178-.047.317-.041.333.034.094.095.143.19.114-.066.177.019.31.028.326.054.09.117.11.16.11a.144.144 0 0 0 .064-.016c-.01.174.12.353.289.353a.237.237 0 0 0 .107-.026c.032.103.103.188.186.208.015.003.185.057.298-.076.059.102.14.16.221.16.075 0 .197.027.327-.205.07.197-.11.309-.226.354Zm.275-1.45-.388-.374c.022-.03.048-.066.082-.108l-.067-.054a2.787 2.787 0 0 0-.077.102l-.165-.158c.05-.07.114-.15.194-.238l.21.23a5.353 5.353 0 0 1 .416-.407l-.057-.065c-.044.04-.089.08-.132.122l-.148-.174c.102-.096.207-.19.315-.28l.19.252c.156-.133.318-.258.485-.376l-.048-.07c-.058.04-.115.081-.172.124l-.132-.187c.112-.084.226-.165.342-.242l.167.265c.187-.122.299-.19.485-.283L6.421 9.2a4.048 4.048 0 0 0-.14.073l-.1-.203a3.19 3.19 0 0 1 .293-.142l.396.814c-.81.356-1.48.98-1.912 1.457Zm4.88 1.291.63-.994a.322.322 0 0 1-.075-.405.322.322 0 0 1 .236-.162.318.318 0 0 1 .346.219h1.629v-.003a.182.182 0 0 1 .18-.181.182.182 0 0 1 .18.182v.002h1.628a.322.322 0 0 1 .304-.222.321.321 0 0 1 .29.459.322.322 0 0 1-.086.11l.63.995c.028.041.042.09.042.146 0 .282-.393.51-.876.51s-.874-.228-.874-.51a.25.25 0 0 1 .04-.146l.63-.994a.324.324 0 0 1-.106-.166c-.42.004-.612.051-.856.234-.236-.177-.423-.226-.816-.234.045.181.123.359.224.483-.139.186-.232.298-.354.57-.121-.272-.216-.384-.355-.57.101-.124.18-.302.225-.483-.394.008-.58.057-.817.234-.244-.183-.435-.23-.856-.234a.326.326 0 0 1-.105.166l.63.994c.028.04.042.09.042.146 0 .282-.392.51-.876.51-.483 0-.875-.228-.875-.51 0-.056.013-.105.041-.146Zm9.254-3.56c.089.036.185.083.293.141l-.1.203a4.236 4.236 0 0 0-.14-.073l-.038.077c.185.092.296.16.486.283l.166-.265c.116.077.23.158.342.242l-.132.187-.171-.125-.049.071c.173.122.321.238.485.376l.19-.252c.106.089.212.183.315.28l-.148.174a4.642 4.642 0 0 0-.132-.122l-.056.065c.144.129.282.264.415.406l.21-.23c.08.089.145.169.194.239l-.164.159a2.575 2.575 0 0 0-.078-.103l-.067.054c.029.036.056.072.082.108l-.388.375c-.431-.477-1.102-1.1-1.912-1.457l.397-.813Zm1.564 3.365c.07.124.108.205.327.205.061 0 .15-.036.221-.16.017.02.095.126.298.076.055-.014.144-.07.186-.207.03.013.06.025.108.025a.257.257 0 0 0 .184-.08.36.36 0 0 0 .104-.273c.025.01.037.015.064.015.043 0 .106-.018.16-.109a.37.37 0 0 0 .027-.326c.096.03.157-.02.192-.114a.398.398 0 0 0-.042-.333c.17-.019.186-.19.187-.248 0-.02.009-.224-.175-.323.365-.262.585-.7.679-1.13l.008.074c.05.176-.136.735-.521 1.066a.47.47 0 0 1 .135.35c-.004.148-.139.235-.184.261a.292.292 0 0 1 .053.3c-.055.153-.166.18-.21.185a.332.332 0 0 1-.039.317.267.267 0 0 1-.243.116c.028.17-.101.375-.305.375a.28.28 0 0 1-.125-.03c-.113.273-.33.313-.536.194-.26.327-.636.009-.553-.226ZM5.219 7.413a.278.278 0 0 1 .093-.035.105.105 0 0 0 .005.144c.02.02.047.032.075.032a.106.106 0 0 0 .092-.056.108.108 0 0 0-.003-.108c.032.01.066.023.103.043.051.028.152.005.152.005l-.004.006s-.302.485-.624.044l.11-.075Zm14.613.031-.003-.006s.101.023.152-.005a.511.511 0 0 1 .103-.043.108.108 0 0 0 .036.149c.016.01.034.015.053.015a.106.106 0 0 0 .075-.032.106.106 0 0 0 .005-.145c.046.01.08.027.093.036l.111.076c-.322.44-.625-.045-.625-.045Zm5.733 6.394c-.24.113-.38-.294-.65-.441a.83.83 0 0 0-.42-.098s-.486-.011-.801.372c0 0-.34.397-.209.933 0 0 .057.316.29.844 0 0 .198.467.19.86-.01.394-.113.748-.453.808 0 0-.267.05-.532-.344 0 0-.275-.44-.423-.987 0 0-.206-.82-.348-1.117 0 0-.114-.252-.183-.36 0 0-.184-.012-.342-.089a.836.836 0 0 1-.232-.158s-.05.233-.25.382c0 0-.688-.197-.542-.908 0 0 .035.56.528.72 0 0 .15-.231.197-.474 0 0 .271.365.691.406 0 0 .132-.16.134-.504 0 0 .299.198.697.12 0 0 .144-.253.024-.754 0 0 .36.11.698-.07 0 0 .132-.064.2-.145 0 0-.053-.079-.198-.23a1.725 1.725 0 0 0-.353-.308s.484.145.878.034a.944.944 0 0 0 .591-.516s-.525-.048-.996-.328c0 0 .721-.07 1.222-.764 0 0 .207-.3.28-.53 0 0-.524.148-1.112.049 0 0 1.187-.239 1.148-1.313 0 0-.181.231-.793.299 0 0 1.006-1.114.517-2.009 0 0-.04.521-.647 1.01 0 0 .438-.974.153-1.88 0 0-.094-.343-.279-.53 0 0 .009.349-.166.777-.175.43-.398.76-.425.8 0 0 .047-.576-.12-.945 0 0-.074-.2-.284-.326 0 0 .066 1.22-.94 2.824 0 0-.41.66-.461.853-.053.199-.119.454.106.89.225.435-.254.894-.432.966-.177.072-.674.286-.922-.328l-.01-.026.016.017.732-.703a2.648 2.648 0 0 0-.287-.357c.146-.308.17-.563.17-.563s.07.2.219.306c0 0 .18-.306.118-.76 0 0-.032-.271-.097-.393 0 0 .145.03.246-.048 0 0-.064-.468-.204-.7-.14-.232-.347-.343-.347-.343s.443.026.739-.351c0 0 .138-.189.132-.322 0 0-.102.081-.378.08 0 0 .325-.098.482-.367.156-.269.097-.615.072-.676 0 0-.54.67-1.375.775 0 0 .22-.09.341-.209 0 0-.01-.583-.327-.692 0 0 .061.173-.063.378 0 0-.1.187-.345.46 0 0-.061.063-.077.109 0 0-.229-.002-.355-.028-.126-.026-.292-.097-.418-.062 0 0-.152.04-.218.194 0 0-.458-.19-.669.16-.154.258-.036.53-.036.53s.026-.18.286-.219c0 0 .164-.036.279.108 0 0 .151.227.312.29.108.043.238.059.359.158 0 0 .12.092.181.193l.031.055s-.108-.039-.326 0c-.218.038-.25.062-.339.077-.09.014-.192.032-.266.006 0 0-.113-.028-.22-.13 0 0-.045.374.252.506 0 0 .155.086.467.004 0 0 .139-.04.165-.052 0 0 .258.113.408.111.15-.001.287-.023.417-.195 0 0 .094-.138.065-.288 0 0-.013-.079-.022-.093 0 0 .15.152.057.455 0 0-.088.297-.5.276 0 0-.09-.002-.234-.037 0 0-.311.105-.63.268l.098-.198a3.262 3.262 0 0 0-.447-.215l-.458.938c-.074.018-.24.061-.328.092-.097.035-.603.224-.875.639 0 0 .187-.068.426-.02 0 0-.594.154-.726.518s.072.714.072.714.06-.494.421-.599c0 0-.392.5-.134 1.204 0 0 .225-.316.743-.274 0 0-.412.414-.621.844-.21.43-.586.704-.654.775-.028.03-.092.093-.162.168V10.12H14.56a2.882 2.882 0 0 0-.984.183c-.273.097-.423.249-.805.427-.38.178-.712.152-.712.152-.585-.05-.866-.505-.866-.505s-.126-.181-.15-.258h-2.23v3.701c-.07-.077-.136-.141-.164-.171-.068-.071-.443-.346-.653-.775-.21-.43-.622-.844-.622-.844.518-.042.743.273.743.273.258-.704-.134-1.203-.134-1.203.36.105.422.598.422.598s.203-.35.07-.713c-.132-.364-.725-.518-.725-.518a.863.863 0 0 1 .426.02c-.272-.415-.778-.604-.875-.639a4.296 4.296 0 0 0-.328-.092l-.458-.939c-.18.072-.261.114-.447.215l.098.2a5.205 5.205 0 0 0-.63-.27A1.179 1.179 0 0 1 5.302 9c-.412.02-.5-.277-.5-.277-.094-.302.057-.454.057-.454-.009.014-.022.093-.022.093a.431.431 0 0 0 .065.288c.13.171.267.194.417.195.15.002.408-.111.408-.111.026.012.165.052.165.052.312.082.467-.004.467-.004.297-.132.252-.506.252-.506-.188.179-.336.146-.486.123-.073-.011-.479-.144-.665-.077.004-.011.031-.054.031-.054.152-.255.444-.313.54-.35.16-.064.312-.291.312-.291.115-.144.279-.108.279-.108.26.04.286.219.286.219s.118-.272-.036-.53c-.211-.35-.67-.16-.67-.16a.353.353 0 0 0-.217-.194c-.126-.035-.292.036-.418.061a2.474 2.474 0 0 1-.355.028.421.421 0 0 0-.077-.109c-.245-.272-.345-.459-.345-.459-.124-.205-.063-.378-.063-.378-.317.11-.328.692-.328.692.123.12.342.209.342.209-.834-.106-1.375-.775-1.375-.775-.025.06-.085.407.072.676.157.269.482.367.482.367-.276.001-.378-.08-.378-.08-.006.133.132.322.132.322.296.377.74.351.74.351s-.208.111-.348.343c-.14.231-.204.7-.204.7.101.078.247.048.247.048-.066.122-.098.393-.098.393-.062.454.118.76.118.76a.712.712 0 0 0 .22-.307s.023.255.169.564c-.118.129-.19.212-.287.357l.732.703.016-.017-.01.025c-.248.615-.745.4-.922.329-.177-.072-.657-.531-.432-.967.224-.435.16-.69.106-.889-.052-.194-.461-.853-.461-.853-1.006-1.605-.94-2.824-.94-2.824-.21.126-.285.326-.285.326-.166.368-.12.945-.12.945-.026-.04-.25-.37-.424-.8-.175-.429-.166-.777-.166-.777-.185.187-.28.529-.28.529-.284.907.154 1.881.154 1.881-.607-.49-.647-1.01-.647-1.01-.49.895.517 2.009.517 2.009-.612-.068-.793-.299-.793-.299-.04 1.074 1.148 1.313 1.148 1.313-.588.1-1.112-.048-1.112-.048.072.229.28.53.28.53.5.693 1.222.763 1.222.763-.471.28-.996.328-.996.328a.94.94 0 0 0 .591.516c.394.111.878-.034.878-.034a1.74 1.74 0 0 0-.353.308c-.145.152-.199.23-.199.23.069.08.2.146.2.146.339.179.7.07.7.07-.121.5.024.753.024.753.397.078.696-.12.696-.12.002.345.134.504.134.504.42-.041.691-.406.691-.406.046.243.197.474.197.474.493-.16.528-.72.528-.72.146.71-.543.908-.543.908a.717.717 0 0 1-.249-.382s-.074.08-.232.158c-.158.077-.342.089-.342.089a4.01 4.01 0 0 0-.182.36c-.143.298-.349 1.117-.349 1.117a4.12 4.12 0 0 1-.423.987c-.265.393-.532.345-.532.345-.34-.06-.444-.415-.452-.808-.01-.394.189-.86.189-.86.233-.53.29-.845.29-.845.13-.536-.21-.933-.21-.933-.314-.383-.8-.372-.8-.372a.834.834 0 0 0-.42.098c-.292.16-.404.557-.65.441.03.074.096.137.096.137.102.098.279.146.279.146s-.047.076-.081.168a.362.362 0 0 0-.004.243c.053.146.21.158.15.345-.06.187-.207.213-.207.213.09.116.232.135.232.135-.001.067.002.135.01.202.047.41.264.49.264.49a.596.596 0 0 1 .027-.307c.035-.112.13-.386.13-.386.102-.3.082-.609.082-.609l.045.085c.091.167.077.276.077.276.199-.089.23-.371.23-.371.073-.53-.241-.637-.241-.637a.203.203 0 0 1 .342-.12c.23.184.229.387.214.589-.018.236-.36 1.102-.36 1.102-.242.679-.17 1.052-.17 1.052.037.31.28.863.672.997.392.135.763.01 1.045-.248.283-.258.506-.858.526-.908l.044-.12c-.05.2.027.625.044.793.017.17-.116.398-.245.474-.13.076-.283.045-.283.045a.688.688 0 0 1-.099.72c-.018.02-.063.061-.063.061-.027.03-.145.128-.192.367-.048.252.116.465.116.465-.022-.29.14-.53.14-.53.042.16-.022.14-.023.514-.001.371.192.546.192.546-.01-.46.206-.495.206-.495-.02.078-.07.374.04.665.008.019.017.034.025.051a9.946 9.946 0 0 0-1.204.22l-.065.017v1.9l.106-.03a8.574 8.574 0 0 1 2.116-.276c1.575 0 2.638.505 3.492.918.549.264 1.023.492 1.476.492.188 0 .319-.036.475-.09v-.531c.16.008.32.054.463.114v.83l.041.025c.527.319 1.995.423 2.624.423.628 0 2.096-.104 2.623-.423l.042-.025v-.83a1.4 1.4 0 0 1 .462-.114v.532c.147.05.278.088.475.088.453 0 .928-.227 1.477-.49.853-.414 1.917-.92 3.491-.92.664 0 1.376.088 2.119.277l.102.03v-1.9l-.064-.017a9.983 9.983 0 0 0-1.205-.22c.007-.017.016-.032.023-.051.11-.29.062-.587.041-.665 0 0 .216.036.206.495 0 0 .193-.175.192-.546-.001-.373-.065-.354-.023-.513 0 0 .162.24.14.53 0 0 .164-.214.116-.466-.047-.24-.165-.338-.192-.367 0 0-.045-.041-.063-.062a.688.688 0 0 1-.151-.546s.011-.09.052-.173c0 0-.153.032-.282-.045-.13-.077-.264-.304-.246-.474.017-.168.093-.593.044-.793l.044.12c.02.05.243.65.526.908.283.258.653.383 1.045.248.392-.134.635-.687.673-.997 0 0 .071-.373-.172-1.052 0 0-.34-.866-.359-1.102-.015-.202-.017-.405.213-.588a.203.203 0 0 1 .343.12s-.314.106-.242.636c0 0 .032.282.231.371 0 0-.014-.11.077-.276l.045-.085s-.02.308.083.609l.13.386a.597.597 0 0 1 .026.307s.217-.08.265-.49c0 0 .012-.105.009-.202 0 0 .141-.02.232-.135 0 0-.147-.027-.207-.213-.072-.223.266-.27.146-.588-.034-.092-.08-.168-.08-.168s.176-.048.278-.146c0 0 .066-.063.096-.136Zm-4.869-2.9.063-.06-.093-.096.083-.083-.06-.062-.083.083a7.849 7.849 0 0 0-.239-.233l.104-.113-.063-.059-.104.114a6.873 6.873 0 0 0-.288-.246l.085-.112-.067-.052-.085.11a5.93 5.93 0 0 0-.292-.215l.077-.116-.071-.047-.077.116a4.792 4.792 0 0 0-.322-.197l.074-.128-.074-.044-.075.13a4.256 4.256 0 0 0-.204-.102l-.036.078c.13.06.26.13.39.208l-.069.118.074.044.068-.117c.223.139.447.303.666.489l-.08.105.067.053.079-.102c.088.077.174.156.259.237l-.087.095.062.058.086-.093c.078.077.156.157.232.24Zm-2.286-2.71s.112.023.31-.03c.199-.05.439-.13.758-.018l.05.02s-.14-.43-.719-.298c-.578.132-.632-.257-.632-.257s-.21.478.233.583Zm2.745 12.048a.322.322 0 0 0 .183-.224c.016-.082-.063-.256-.294-.133-.231.124-.227.627-.227.627l.02-.027a.987.987 0 0 1 .318-.243Zm-.569-.697c-.387.12-.385.63-.385.63l.03-.039c.132-.169.313-.212.37-.229.097-.028.133-.406-.015-.361Zm-.06-.211c-.062-.152-.163-.071-.163-.071-.327.24-.322.51-.322.51l.027-.034c.113-.134.388-.209.431-.219.043-.01.087-.034.026-.186Zm-4.343-1.954c-.327-.028-.5.36-.5.36l.028-.012c.306-.102.506-.055.544-.043.04.014.04-.014.04-.014a.534.534 0 0 0-.03-.218c-.025-.07-.082-.073-.082-.073Zm.036-.536c.03.031.063.008.063.008a.34.34 0 0 0 .15-.195c.022-.078-.061-.12-.061-.12a.517.517 0 0 0-.696.084l.027-.004c.299-.01.487.196.517.227Zm.608-.564a.363.363 0 0 0 .218-.136c.044-.056-.022-.127-.022-.127-.325-.366-.666-.073-.666-.073l.033.01c.285.094.377.295.386.317.008.023.052.01.052.01Zm.06-.553c-.161-.155-.153-.287-.18-.344-.018-.04-.041-.05-.087-.07-.074-.035-.126-.01-.126-.01-.135.068-.067.196-.067.196.159.303.46.228.46.228Zm1.353-1.172.022-.06c.006-.017.108-.433-.039-.545-.14-.108-.217.025-.217.127 0 .099.07.175.07.175a.48.48 0 0 1 .164.303Zm-1.333.78c.265.282.57.085.57.085s-.236-.063-.363-.259c-.084-.131-.187-.068-.187-.068-.072.049-.044.18-.044.18.008.047.024.063.024.063Zm.218-4.782c.136-.212.352-.44.352-.44s-.066-.05-.167-.112c-.1-.062-.234-.164-.487-.251S16.37 9.7 16.37 9.7l-.607.031c-.193.009-.168.019-.24.064a2.909 2.909 0 0 0-.228.2h1.581v.35c.211.113.249.241.249.241Zm-11.875.147-.088-.095c.085-.081.171-.16.26-.237l.078.102.068-.053-.081-.105c.21-.18.433-.343.666-.49l.068.118.074-.044-.068-.118c.126-.076.256-.145.389-.208l-.036-.078a4.285 4.285 0 0 0-.204.102l-.075-.13-.073.044.073.128a4.62 4.62 0 0 0-.322.197l-.077-.116-.071.047.077.116a6 6 0 0 0-.292.216l-.084-.111-.068.052.085.112c-.098.08-.194.161-.288.246l-.104-.114-.063.06.104.112a8.094 8.094 0 0 0-.24.233l-.082-.083-.06.062.083.083-.093.097.063.06c.077-.083.154-.163.232-.24l.086.093.063-.058Zm1.506-2.832c-.578-.131-.72.299-.72.299l.052-.02c.318-.113.56-.034.757.018.198.052.31.029.31.029.444-.105.233-.583.233-.583s-.055.389-.632.257ZM4.729 20.52l.019.027s.004-.503-.226-.627c-.231-.124-.311.05-.295.133a.32.32 0 0 0 .184.224.99.99 0 0 1 .318.243Zm.25-.94c-.148-.044-.112.334-.015.362.057.017.238.06.37.23l.03.038s.002-.51-.385-.63Zm.223-.282s-.1-.08-.162.07c-.061.152-.017.178.026.187.044.01.319.085.431.219l.027.033s.005-.268-.322-.51ZM9.31 17.72c.038-.012.238-.059.544.043l.029.011s-.173-.387-.5-.359c0 0-.058.002-.082.073a.533.533 0 0 0-.03.218s0 .027.04.014Zm.58-1.064s-.287-.35-.695-.084c0 0-.083.042-.061.12.025.093.152.251.212.188.165-.177.383-.248.544-.224Zm-.714-.667.032-.01s-.34-.293-.666.073c0 0-.066.07-.022.127a.36.36 0 0 0 .218.136s.043.014.052-.009c.009-.021.1-.223.386-.316Zm-.037-.455c.054-.104-.037-.258-.194-.187-.046.02-.069.03-.087.071-.029.062-.02.192-.18.344 0 0 .302.076.46-.228Zm-1.797-1.549c-.147.112-.044.528-.038.544l.021.06s.012-.173.163-.302c0 0 .071-.077.071-.175 0-.102-.077-.235-.217-.127Zm1.34 1.323s.028-.131-.043-.18c0 0-.104-.063-.188.068-.127.196-.363.259-.363.259s.305.197.57-.085c0 0 .017-.015.025-.062ZM9.196 9.7s-.2-.004-.453.083c-.253.087-.386.189-.487.25-.101.063-.167.113-.167.113s.216.228.352.44c0 0 .038-.128.25-.24v-.352h1.58a2.868 2.868 0 0 0-.227-.199c-.072-.045-.048-.055-.24-.064L9.196 9.7Zm3.02-7.248c-.198-.054-.261.11-.264.18.093-.081.205.053.264-.18Zm-1.697-.074c.011.285.152.167.217.246.015-.069-.007-.248-.217-.246Zm.646.439.03.036v-.212h-.313l.15.066c0 .125.133.11.133.11Zm.508-.11.15-.066h-.314v.212l.03-.036s.134.015.134-.11ZM3.962 4.42a1.452 1.452 0 0 0 .945.217l.308-.035-.108-.293c-.136-.376-.092-.991.097-1.292l.01-.019c.053.122.13.245.231.361a1.82 1.82 0 0 0 1.137.6c-.208.254-.35.665-.444.845-.196.374-.381.728-1.129.728-.289 0-.616-.213-.833-.543a1.3 1.3 0 0 1-.214-.569ZM14.13 6.374a4.419 4.419 0 0 1-.216-.313s.093-.02.197-.024c0 0 .314.003.427.207l.002.004c.014.044.015.1-.004.171-.063.23-.34.031-.406-.045Zm-.267.098c-.107.047-.319-.046-.403-.245-.084-.2-.204-.294-.204-.294s.016-.014.038-.024c.074-.034.133-.045.242-.007.122.044.223.258.27.356.033.064.07.126.11.184l-.053.03Zm-.608-.08c-.102.06-.328-.01-.435-.204a.795.795 0 0 0-.24-.275s.014-.017.034-.03h.004a1.15 1.15 0 0 0 .194-.04c.016.002.03.003.048.007.13.03.255.237.315.33.06.094.132.176.132.176l-.052.037Zm-.609-.033c-.096.07-.327.021-.452-.16a.803.803 0 0 0-.266-.252s.013-.017.032-.032a.282.282 0 0 1 .118-.055c.066.012.133.022.2.027.108.06.213.199.268.27.069.087.149.161.149.161l-.049.041Zm-.6.066c-.101.072-.342.021-.473-.167-.13-.19-.276-.261-.276-.261s.013-.02.033-.034c.07-.052.13-.076.251-.06.137.018.289.22.36.31.047.06.099.116.154.169l-.05.043Zm-.66.033c-.21.09-.59.01-.635-.187a.176.176 0 0 0 .038-.04c.08.042.137.005.189-.01-.02-.047-.027-.112-.002-.153.01 0 .021-.005.032-.008.203.08.445.357.445.357l-.067.04Zm-.686-.59c.011-.062.098-.07.128-.057.024.01.078.05.07.112-.024.046-.024.053-.028.069a.353.353 0 0 0-.011.05c-.006.023-.007.07.009.096-.078-.01-.186-.147-.168-.27Zm-.184.1a.076.076 0 0 1 .05-.074c.027-.007.058.012.078.05v.004l.005.01a.444.444 0 0 0 .027.228l.001.003c-.097-.01-.15-.124-.16-.22Zm.044.26a.22.22 0 0 1-.195-.129c-.03-.063-.006-.142.022-.152.034-.014.068.007.087.04a.62.62 0 0 0 .066.213l.002.003a.115.115 0 0 0 .018.024Zm3.498-1.154c.063.004.126.006.19.007.059 0 .133-.002.206-.01.013.065.037.13.081.193a.247.247 0 0 1 .014.154l-.007.036a.25.25 0 0 1-.056-.048c-.04-.042-.1-.104-.2-.104-.073 0-.14.045-.188.097l-.04-.325Zm-3.742 1.001c-.039-.038-.062-.119-.058-.197a.222.222 0 0 1 .232-.216c.094-.181.246-.181.34-.138.166-.078.286-.334.387-.402.002-.038-.004-.084-.006-.134a.72.72 0 0 0 .234.05c-.084-.21-.024-.274.042-.373.207.038.384-.087.483-.207.218-.14.35-.419.38-.637.514-.111 1.236.038 1.683.099.502.067.747-.144.747-.36a.298.298 0 0 0-.291-.279c-.172 0-.308.15-.258.363-.315 0-.33-.232-.211-.33a.453.453 0 0 0 .227-.116l.06-.055a.712.712 0 0 0 .302-.09c.264.05.484.176.484.48 0 .44-.47.62-.675.62a.916.916 0 0 1-.436-.112c.136.087.235.284.267.452.166.083.329.098.435.108.258-.082.393.213.413.358-.035-.05-.16-.098-.23-.094.184.103.262.313.253.515-.03-.066-.104-.153-.171-.146.16.193.086.484-.043.57a.583.583 0 0 0-.038-.227c.028.147-.125.439-.293.373a1.06 1.06 0 0 0-.353-.095l-.013-.001c-.044-.004-.088 0-.11.063-.052-.076-.019-.192.026-.26a.123.123 0 0 1-.002-.053c.011-.09.105-.18.163-.18.109 0 .129.161.3.161.035 0 .058-.009.082-.145a.374.374 0 0 0-.025-.234.453.453 0 0 1-.082-.274c-.206.049-.662.022-.81-.026h-.002c-.069-.11-.14-.413-.296-.546-.211.267-.095.508.072.731.045.014.124.18-.059.241a.027.027 0 0 0-.01-.019c-.01-.01-.03-.014-.053-.012-.058.004-.135.044-.14.126a.223.223 0 0 0-.08-.002c-.138.021-.153.16-.253.23h-.005c-.043-.006-.087-.007-.132-.01-.192-.012-.299.025-.391.082-.139-.086-.319-.082-.464-.046.012-.114.11-.34.222-.34.105 0 .297.07.335.067h.005c.173-.02.102-.063.314-.261.087-.082.188-.153.27-.155-.283-.008-.334-.248-.334-.378 0-.17.207-.374.324-.417a.396.396 0 0 0-.098-.014c-.211-.004-.327.182-.387.286a.153.153 0 0 1-.03.037.753.753 0 0 1-.177.114c-.104.053-.235.11-.377.179a.026.026 0 0 1-.006-.004.53.53 0 0 1-.028.153.232.232 0 0 1-.078.111c-.01-.025-.044-.11-.096-.14.085.236-.073.49-.203.566.026-.04.028-.168-.015-.238a.608.608 0 0 1-.081.23.777.777 0 0 1-.322.294c-.048.074-.139.176-.225.176.042-.121-.047-.21-.127-.23-.069-.017-.156.032-.178.14-.076-.091-.165-.034-.168.051-.01-.02-.072-.052-.111-.035-.05.021-.081.094-.051.202Zm.764-1.283-.014-.014c-.204-.197-.173-.517-.026-.706-.166.053-.223.263-.217.461-.36-.441-.072-.734.054-.852-.13.014-.266.193-.337.336-.159-.275-.091-.508.08-.64-.114.045-.218.04-.25.005 0 0 .172-.209.2-.346 0 0 .003-.007.012-.071l.002-.013c-.093.01-.144-.053-.173-.116a.53.53 0 0 0 .043-.021c.059-.024.116-.036.144-.004l.164.223s-.03.194.159.282c.054.047.13.129.155.226a.29.29 0 0 0 .265.222.273.273 0 0 0 .27-.22.49.49 0 0 1 .15-.229c.197-.086.168-.285.168-.285l.184-.231c.014-.01.032-.006.052.006.055.072.099.1.16.137-.037.058-.121.062-.213.04a1.525 1.525 0 0 0 .128.418l.007.01a.33.33 0 0 0 .056.08c-.03.025-.107.025-.196-.01l.003.003c.04.035.07.079.093.155a.738.738 0 0 1-.117.569c.005-.142-.025-.358-.187-.429.206.285-.022.74-.324.798a.534.534 0 0 0-.034-.615c.292.515-.382.576-.21.976-.092-.033-.137-.065-.152-.072-.136-.41.084-.837.084-.837s-.324.358-.183.764Zm-.248-.083c-.022.047-.043.09-.144-.007-.102-.096-.1-.1-.22-.157a.43.43 0 0 1-.19-.166c.052.016.082.011.14-.015-.088 0-.222-.125-.274-.234a.14.14 0 0 0 .108 0c-.134-.089-.139-.234-.179-.385a.316.316 0 0 1-.272-.339c.088.01.18-.009.206-.054.02-.033.017-.082.004-.12a.137.137 0 0 0 .143-.066.14.14 0 0 0 .018-.052c.064.033.17.015.2-.133.022.02.039.056.05.095-.054.102-.15.24-.211.314l.072.076a.18.18 0 0 0 .073.048c-.066.138-.044.492.168.675.033.137.1.387.333.47l.002.004a.345.345 0 0 0-.027.046ZM9.643 3.344c.028-.178.205-.159.294-.114a.068.068 0 0 1 .003.095c-.013.015-.072.028-.118.01-.043-.032-.123-.027-.179.01Zm.427-.285c.031.03.031.06.016.079a.108.108 0 0 1-.104.04c-.038-.056-.13-.086-.23-.058.081-.131.242-.113.318-.062Zm.22-.126c-.002.058-.05.129-.115.106l-.003-.014c-.01-.055-.112-.127-.157-.136.119-.05.232-.005.274.044Zm1.062.42c.033.004.15.011.125.1-.031.113-.127.103-.127.103s-.097.01-.128-.103c-.026-.096.105-.099.13-.1Zm-.002.262c.198 0 .197-.283.207-.312l.023.01c.027.008.056.01.084.008-.111.1-.045.185-.167.29l-.006.004a.243.243 0 0 1-.141.049.377.377 0 0 1-.092-.016c-.123-.038-.108-.22-.245-.308a.51.51 0 0 0 .103-.003l.02-.006s.017.284.214.284Zm-.864-1.303c.039-.024.16.025.273.112.033-.046.033-.096.033-.096.01-.133-.047-.196-.047-.196s.097-.017.204.059c.027.018.075.073.075.073s.013-.052-.01-.155c-.025-.104-.124-.158-.166-.158 0 0 .079-.19.269-.036.044.036.129.19.129.19s-.024-.16.025-.238c.033-.053.055-.062.055-.062s-.005.076.059.154a.418.418 0 0 0 .154.113s.036-.136.144-.14a.146.146 0 0 1 .102.032s-.068.1.024.294c0 0 .133-.213.253-.193 0 0-.067.036-.062.207l.005.093.003.03c.1-.02.198-.008.244.03-.002.03-.029.178-.067.214l-.378.34s.073.151-.036.26c-.047.027-.193.092-.31-.082a.688.688 0 0 0-.024-.034.078.078 0 0 0 .078-.047c.023-.053.097-.06.097-.06l-.084-.048s-.064.077-.124.077h-.112c-.06 0-.122-.077-.122-.077l-.078.05s.096.008.121.06c.024.048.076.044.076.044l-.017.026c-.094.134-.202.192-.34.106-.127-.11-.046-.279-.046-.279l-.243-.207c-.209-.182-.175-.424-.157-.456Zm3.888 1.145a.143.143 0 0 1 .114-.053c.125 0 .17.119.17.156 0 .115-.136.248-.477.248a1.04 1.04 0 0 1-.133-.01l-.15-.021-.021-.168c.057.09.19.2.479.122-.038-.152-.012-.237.018-.274Zm-1.192-.784.014-.001c.23.003.35.095.523.095.317 0 .174-.334.092-.366.26-.137.416.2.35.3.402-.291.856.146.83.365a.563.563 0 0 0-.373-.13c-.18.023-.226.155-.499.07-.063-.02-.088-.025-.187-.071.015.006.046.074.085.116a.172.172 0 0 0 .15.057.363.363 0 0 1-.352.075c-.223-.064-.223-.205-.446-.246-.208-.037-.543-.025-.543.188 0 .132.137.189.344.189.118 0 .299-.071.409-.114.079.06.172.1.27.115l-.008.003c-.243.078-.386.268-.787.268-.27 0-.537-.154-.537-.445 0-.304.337-.468.665-.468Zm-.61-.826c0-.121.078-.307.226-.307.147 0 .226.186.226.307v.291h-.453v-.29Zm7.375 1.512c.1-.116.179-.239.23-.36l.012.018c.187.3.233.916.096 1.292l-.108.293.308.035a1.454 1.454 0 0 0 .946-.217 1.31 1.31 0 0 1-.216.57c-.217.33-.543.542-.832.542-.748 0-.933-.354-1.129-.728-.095-.18-.236-.591-.445-.846a1.82 1.82 0 0 0 1.138-.599ZM5.01 5.776c1.5 0 1.204-1.433 2.004-1.433.352 0 1.03.545 1.293 1.45-.946-.625-2.036.18-2.112.715 1.602-.532 2.796.54 3.009.745.426.409.229 1.798-.518 1.965.816.422 1.604.024 2.05-.538a.786.786 0 0 0 .446.201c.146.129.256.315.259.677-.204.066-.382.277-.26.53.128.29.613.538.857.537.615-.001.808-.203 1.32-.476a2.59 2.59 0 0 1 1.583-.259c-.188-.144-.331-.413-.41-.704a2.211 2.211 0 0 1-.059-.832c.143.46 1.091 1.459 2.237.864-.748-.167-.898-1.516-.554-1.997.2-.28.693-.689 1.284-.628a.403.403 0 0 1 .317.541c.252-.1.778-.463.778-.982 0-.52-.679-1.06-1.249-.796.263-.904.876-.916 1.227-.916.689 0 .372 1.336 1.872 1.336.782 0 1.546-1.078 1.216-1.87-.193.337-.64.537-1.087.487.213-.582.07-1.721-.503-1.778.03.43-.54 1.06-1.312 1.108-.347-.365-.864-.524-1.145-.524-.366 0-1.025.52-.94 1.496-.124-.395-.861-.517-1.083-.345.46.298.56 2.774-.378 2.774-.239 0-.48-.067-.788-.42.171.017.351-.038.396-.327a.41.41 0 0 0-.064-.307.305.305 0 0 0 .083-.037l.006-.002.19-.125a.452.452 0 0 0 .172-.275c.088-.115.088-.315.058-.472.056-.393-.18-.694-.433-.694a.358.358 0 0 0-.098.013 1.13 1.13 0 0 1-.32-.07.938.938 0 0 0-.048-.139c.037.004.075.006.113.007.268 0 .796-.225.796-.743a.537.537 0 0 0-.145-.391c.074-.126-.013-.378-.173-.5-.158-.12-.372-.218-.624-.12a.573.573 0 0 0-.083-.153.34.34 0 0 0-.435-.076l-.037.02-.11-.884.008-.008c-.374-.157-1.14-.214-1.64-.006l.014.015-.077.611c-.052.035-.077.086-.077.086-.022-.18.064-.202.064-.202-.23-.166-.387.02-.387.02-.167-.114-.128-.256-.128-.256-.192.025-.217.16-.217.16-.328-.238-.425.157-.425.157l.089.045a.265.265 0 0 0-.211.033s.128.113.11.249l-.015-.014a.744.744 0 0 0-.127-.082s-.208-.108-.205.066c.003.175.047.384.047.384a.552.552 0 0 1-.168.099.37.37 0 0 0-.141-.03.506.506 0 0 0-.17.027.4.4 0 0 0-.15.117c.042.016.062.031.066.045-.108.02-.177.068-.208.117a.496.496 0 0 0-.09.49.316.316 0 0 1 .123-.108c.003.093.03.186.087.266a.3.3 0 0 0 .208.131c.034.193.12.494.202.604.076.1.13.15.232.2.102.049.091.044.192.139.043.04.101.086.17.086.074 0 .113-.049.134-.086a.553.553 0 0 0 .172.155c0 .042.001.085.005.128-.036.037-.07.082-.108.132a.971.971 0 0 1-.17.191.363.363 0 0 0-.397.155.34.34 0 0 0-.282.327.399.399 0 0 0 .087.284.218.218 0 0 0 .059.045.346.346 0 0 0 .258.147l.002.013c.077.274.315.345.542.342-.106.384.104.661.337.728.08-.282.428-.671.729-.724-.159.169-.368.442-.387.735 1.014-.046 1.79-.39 2.299-.81l.127.147c.382.481.698.526.965.523a1.73 1.73 0 0 0 .662-.106l.062-.024-.036.056c-.212.326-.244 1.365.216 1.85l.034.036h-.05c-.561 0-1.548-.721-1.611-1.473-.116.135-.257.685-.252 1.021l.001.065-.038-.051c-.489-.632-.326-1.383-.15-1.745-1.045.743-3.432 1.354-3.18.001-.192.145-.384.452-.384.742 0 .67.997.915 2.964.126-.364.287-.917.613-1.53.721.177.357.222 1.058.148 1.441-.053-.212-.172-1.109-.554-1.404a1.982 1.982 0 0 1-.892-.203l-.006-.005-.001.003c-.227.434-.77.74-1.21.74.456-.48.44-1.534.219-1.876.188.074.402.106.61.106h.06c.036 0 .072 0 .109-.002a1.01 1.01 0 0 1 .12-.263c-.111.022-.21.021-.29.021-.964 0-.923-2.259-.232-2.37-.146-.366-.892-.622-1.038.423.086-.977-.31-1.933-1.066-1.933-.28 0-.798.16-1.146.524-.77-.048-1.341-.678-1.311-1.108-.573.057-.716 1.196-.503 1.778-.447.05-.894-.15-1.087-.486-.33.79.433 1.87 1.216 1.87Zm6.844-4.495c.535-.25 1.447-.207 1.884.006l.246-.272.255-.802a3.629 3.629 0 0 0-.658-.16l-.084.367a3.179 3.179 0 0 0-.326-.037V.009a5.43 5.43 0 0 0-.744.008v.376c-.117.01-.233.022-.348.037l-.085-.364a5.02 5.02 0 0 0-.64.137l.258.812.242.266Zm2.47 11.055a2.08 2.08 0 0 1 .502-.057v-.719a.058.058 0 0 0-.009-.002l-.493.778Zm.573-.948a.14.14 0 0 0 .129-.088.139.139 0 0 0 .01-.054.142.142 0 0 0-.084-.136.14.14 0 0 0-.195.136.14.14 0 0 0 .14.142Zm-.698 1.146c.002.066.277.12.627.126v-.255c-.297.006-.54.046-.607.098l-.02.03Zm.767.126c.352-.006.626-.06.626-.127v-.003l-.015-.024c-.063-.054-.308-.095-.61-.1v.254Zm-4.222-1.1v.72c.19.002.365.019.501.056l-.492-.778-.01.002Zm4.223 0v.72c.191.002.365.018.502.056l-.493-.778-.01.003Zm-4.364 1.1v-.255c-.298.006-.54.046-.608.099l-.02.03c.003.066.277.12.628.126Zm0-1.1c-.003 0-.007 0-.01-.002l-.492.779a2.07 2.07 0 0 1 .502-.058v-.718Zm.07-.172a.14.14 0 0 0 .14-.141.142.142 0 0 0-.14-.142.14.14 0 0 0-.14.141.142.142 0 0 0 .14.142Zm.07 1.272c.352-.006.626-.06.626-.127v-.003l-.016-.024c-.062-.053-.307-.095-.61-.1v.254Zm-.262 2.684c.01.074.026.17.04.246a.194.194 0 0 0 .142.324.19.19 0 0 0 .177-.115.197.197 0 0 0-.033-.21c.015-.08.028-.163.04-.245.125-.016.246-.05.36-.103v-.36a.953.953 0 0 1-.35.123v-.593c0-.268-.04-.631-.194-.711-.152.08-.192.443-.192.71v.594a.951.951 0 0 1-.35-.124v.361c.114.053.235.088.36.103Zm7.456 6.49.026-.084.05-.163.017-.058c.014.027.03.052.047.077.016.02.03.042.046.068l.037.061-.223.098Zm.428-.124c-.044-.07-.089-.126-.133-.197l-.222-.316-.017.01-.012.002-.25.77c-.052.17-.073.2-.094.24l-.03.063c.262-.135.206-.086.271-.116l-.003-.02a.34.34 0 0 1 .014-.146l.347-.151.001.002a.217.217 0 0 1 .046.12l.003.032c.06-.026.192-.082.258-.103l-.029-.013a1.032 1.032 0 0 1-.15-.177Zm3.619-1.178-.05-.003c.066.08.048.052.11.129v.517c0 .133-.023.18-.036.21l-.013.032.261.02-.013-.037a.497.497 0 0 1-.034-.18v-.355l.257.347.253-.293v.34c0 .088-.01.143-.033.2l-.012.023.261.036-.015-.033c-.034-.086-.034-.164-.034-.22v-.412c0-.114.026-.142.058-.176l.028-.03-.213-.035-.007.012c-.025.042-.035.053-.058.079l-.226.258-.21-.286a.525.525 0 0 1-.068-.117l-.005-.012-.201-.014Zm-.389.017.011-.03c-.091-.001-.14 0-.243.002l.015.031c.027.056.027.145.027.18v.333a.282.282 0 0 1-.005.079.194.194 0 0 1-.172.135h-.004c-.012 0-.124-.003-.169-.11a.286.286 0 0 1-.015-.107v-.308c0-.112.007-.141.026-.194l.01-.03-.241.016.012.028c.013.03.024.057.024.18v.332c0 .198.1.336.296.332a.524.524 0 0 0 .243-.08l-.007.064h.198l-.005-.027c-.021-.11-.021-.157-.021-.213v-.45c0-.109.008-.13.02-.163Zm-1.779.13-.063.213.046-.025a.756.756 0 0 1 .238-.1v.519c0 .07-.007.141-.024.21l-.007.03c.115-.02.172-.026.228-.033l-.007-.021a.707.707 0 0 1-.022-.193v-.537a.51.51 0 0 1 .067-.005c.037 0 .069.007.127.022l.017.004.082-.186c-.277.03-.436.059-.682.103Zm-.383.762-.002-.057-.034.043c-.042.044-.104.112-.226.15a.3.3 0 0 1-.088.015c-.121 0-.205-.092-.218-.23a.373.373 0 0 1 .266-.392.363.363 0 0 1 .097-.014c.04 0 .064.004.143.025l-.018-.183c-.032-.002-.049-.004-.077-.004a.493.493 0 0 0-.129.018.63.63 0 0 0-.35.25.574.574 0 0 0-.104.363c.016.163.125.324.332.324a.522.522 0 0 0 .146-.021c.137-.043.21-.102.26-.135l.009-.007-.006-.145Zm-2.375.606v-.232a.81.81 0 0 1 .004-.075c.098-.05.153-.056.195-.022a.101.101 0 0 1 .043.092c0 .118-.162.223-.242.237Zm.194-.475a.408.408 0 0 0-.13.026c-.041.014-.115.038-.175.064l-.092.041.01.024c.012.022.03.048.03.194v.35c0 .13-.02.206-.034.274l-.012.047c.077-.026.075-.026.245-.099l-.004-.02a.97.97 0 0 1-.032-.214v-.08c.206-.067.414-.239.414-.42 0-.116-.09-.187-.22-.187Zm-3.313 1.134v.513a.522.522 0 0 1-.036.22l-.015.035c.148-.018.194-.026.264-.036l-.012-.027a.44.44 0 0 1-.033-.172v-.366c.085.096.166.18.245.266l.018.02.254-.373v.33c0 .085-.01.149-.035.209l-.016.037.264-.059-.012-.024c-.034-.071-.034-.15-.034-.203v-.414a.3.3 0 0 1 .061-.206l.033-.042-.055.014a1.964 1.964 0 0 1-.161.031l-.01.002-.005.007a.72.72 0 0 1-.054.102l-.003.004c-.072.098-.104.15-.233.331-.072-.072-.142-.153-.209-.224a.49.49 0 0 1-.068-.1l-.007-.012-.016.002c-.117.014-.155.017-.233.025l.032.028c.024.028.05.055.076.082Zm-1.086.165v.332c0 .207.11.34.281.34l.014-.001a.48.48 0 0 0 .243-.085.819.819 0 0 1-.004.038l-.003.027.198-.017-.005-.022c-.022-.11-.022-.158-.022-.215v-.445c0-.108.01-.132.021-.17l.012-.036c-.102.009-.07.008-.245.02l.015.034a.443.443 0 0 1 .029.181v.33a.255.255 0 0 1-.007.079c-.02.066-.086.138-.172.143H13.2a.183.183 0 0 1-.166-.112.276.276 0 0 1-.015-.108v-.306c0-.119.008-.144.025-.193l.01-.033c-.076.004-.096.003-.24.006l.013.036c.013.03.024.056.024.177Zm-.642.528v-.262c.065.01.109.026.179.049.053-.08.062-.102.1-.16l-.28-.014v-.255a.41.41 0 0 1 .202.066l.02.01c.06-.132.047-.091.087-.181-.226-.006-.457-.03-.516-.035l.01.034c.02.069.03.14.03.211v.412c0 .108-.018.165-.03.207l-.008.024.026.002c.136.013.28.022.44.028h.015l.088-.193-.046.013a.7.7 0 0 1-.317.044Zm-.655-.823-.014-.001-.007.01c-.024.034-.033.047-.058.075a4.48 4.48 0 0 1-.23.247 6.833 6.833 0 0 1-.21-.305.418.418 0 0 1-.07-.13l-.004-.009-.012-.002c-.126-.02-.154-.028-.243-.05l.035.045c.013.012.025.03.038.049l.04.059v.514a.434.434 0 0 1-.036.206l-.011.024.025.006c.066.015.131.029.197.042l.04.009-.016-.038a.526.526 0 0 1-.035-.185v-.353l.258.372.018-.019.241-.265v.342c0 .087-.01.142-.034.195l-.012.026.265.037-.014-.034a.538.538 0 0 1-.035-.22v-.412c0-.11.027-.143.06-.184l.028-.028-.204-.023Zm-3.76-1.065v.522c0 .138-.021.169-.035.2l-.012.025.024.01c.068.026.134.047.196.06l.043.018-.016-.034a.612.612 0 0 1-.033-.197v-.349l.239.405.013.008.02-.003c.08-.08.161-.143.238-.215v.355c0 .084-.01.138-.033.178l-.011.023.021.01c.07.035.135.06.195.083l.047.022-.018-.044a.646.646 0 0 1-.036-.236v-.414c0-.106.026-.13.056-.157l.028-.018-.032-.012a3.448 3.448 0 0 1-.159-.075l-.015-.008-.01.017a.176.176 0 0 1-.056.061c-.069.052-.137.119-.207.169l-.018.017-.052-.081a5.133 5.133 0 0 0-.16-.262 1.103 1.103 0 0 1-.07-.139l-.003-.01-.01-.003a2.37 2.37 0 0 0-.187-.07l-.06-.02.035.052c.024.039.05.076.078.112Zm-1.173-.363v.33c0 .206.11.379.289.435a.4.4 0 0 0 .252.018c0 .013-.003.028-.006.055l-.002.022.016.007c.049.018.097.027.147.05l.037.018-.007-.044c-.022-.119-.022-.154-.022-.22v-.45c0-.107.009-.126.02-.151l.01-.02-.043-.017-.157-.065-.045-.018.018.048c.028.07.028.16.028.195v.33a.26.26 0 0 1-.005.079.115.115 0 0 1-.107.068.149.149 0 0 1-.058-.013.324.324 0 0 1-.18-.186.336.336 0 0 1-.016-.117v-.303c0-.115.008-.14.025-.184l.009-.023-.243-.082.016.045c.013.037.024.07.024.193Zm-.897-.351c.03 0 .052.003.075.008v.523a.724.724 0 0 1-.024.202l-.005.025.229.048-.01-.035a.82.82 0 0 1-.023-.203v-.527a.51.51 0 0 1 .189.084l.019.013.01-.02c.022-.04.042-.08.06-.116l.012-.025-.027-.006a9.883 9.883 0 0 0-.63-.127l-.018-.002-.063.186.036-.007a.911.911 0 0 1 .17-.021Zm-.752.482a.303.303 0 0 1-.038-.003.312.312 0 0 1-.291-.32c0-.166.109-.282.265-.282a.48.48 0 0 1 .24.08l.034.021v-.188l-.013-.005c-.04-.018-.096-.044-.188-.053a.508.508 0 0 0-.054-.003c-.226 0-.46.165-.46.438a.47.47 0 0 0 .092.277.47.47 0 0 0 .349.18.574.574 0 0 0 .061.004c.102 0 .165-.027.212-.046l.013-.004.01-.183-.036.022c-.039.024-.098.065-.196.065Zm-.894-.749.01-.031-.248.006.011.03c.02.046.031.093.031.19v.398a.641.641 0 0 1-.03.234l-.01.03.245-.007-.008-.025a.688.688 0 0 1-.03-.225v-.386c0-.122.015-.166.03-.214Zm-1.06.806c-.004-.049-.004-.087-.004-.164v-.335c0-.036 0-.087.004-.132.256.01.277.213.277.277a.364.364 0 0 1-.277.354Zm.048-.755a.932.932 0 0 0-.232.03l-.02.006.004.02a.428.428 0 0 0 .005.019c.01.04.027.1.027.198v.355c0 .155-.016.204-.031.256l-.01.03.229-.032a.498.498 0 0 0 .444-.483.395.395 0 0 0-.088-.257c-.078-.097-.185-.142-.328-.142Z" fill="#fff"/></svg>